<?xml version="1.0" encoding="UTF-8"?>
<svg id="Ebene_1" xmlns="http://www.w3.org/2000/svg" viewBox="0 0 118.49 32.04">
  <defs>
    <style>
      .cls-1 {
        fill: #fff;
      }
    </style>
  </defs>
  <path class="cls-1" d="M22.82,13.72h-9.96c-.26,0-.47.21-.47.47v4.87c0,.26.21.47.47.47h3.88v6.05s-.87.3-3.28.3c-2.84,0-6.82-1.04-6.82-9.78S10.79,6.19,14.67,6.19c3.36,0,4.81.59,5.73.88.29.09.56-.2.56-.46l1.11-4.7c0-.12-.04-.27-.18-.36-.37-.27-2.66-1.55-8.43-1.55C6.82,0,0,2.83,0,16.42s7.81,15.62,14.39,15.62c5.45,0,8.75-2.33,8.75-2.33.14-.08.15-.27.15-.35v-15.18c0-.26-.21-.47-.47-.47Z"/>
  <path class="cls-1" d="M74.14,1.63c0-.26-.21-.47-.46-.47h-5.61c-.26,0-.46.21-.46.47,0,0,0,10.83,0,10.83h-8.74V1.63c0-.26-.21-.47-.46-.47h-5.61c-.26,0-.46.21-.46.47v29.34c0,.26.21.47.46.47h5.61c.26,0,.46-.21.46-.47v-12.55h8.74s-.02,12.55-.02,12.55c0,.26.21.47.46.47h5.62c.26,0,.46-.21.46-.47V1.63Z"/>
  <g>
    <path class="cls-1" d="M33.4,5.48c0-2.02-1.62-3.65-3.62-3.65s-3.61,1.63-3.61,3.65,1.62,3.65,3.61,3.65,3.62-1.64,3.62-3.65Z"/>
    <path class="cls-1" d="M33,24.78v-13.54c0-.26-.21-.47-.46-.47h-5.59c-.26,0-.49.26-.49.52v19.4c0,.57.36.74.82.74h5.04c.55,0,.69-.27.69-.75v-5.9Z"/>
  </g>
  <path class="cls-1" d="M95.44,10.81h-5.56c-.26,0-.46.21-.46.47v14.39s-1.41,1.03-3.42,1.03-2.54-.91-2.54-2.87v-12.54c0-.26-.21-.47-.46-.47h-5.65c-.25,0-.46.21-.46.47v13.49c0,5.83,3.25,7.26,7.72,7.26,3.67,0,6.63-2.03,6.63-2.03,0,0,.14,1.07.2,1.2.06.13.23.25.41.25l3.59-.02c.25,0,.46-.21.46-.47V11.28c0-.26-.21-.47-.47-.47Z"/>
  <path class="cls-1" d="M110.65,10.15c-3.16,0-5.31,1.41-5.31,1.41V1.63c0-.26-.21-.47-.46-.47h-5.62c-.26,0-.46.21-.46.47v29.34c0,.26.21.47.46.47h3.9c.18,0,.31-.09.41-.25.1-.16.24-1.35.24-1.35,0,0,2.3,2.18,6.65,2.18,5.11,0,8.04-2.59,8.04-11.63s-4.68-10.22-7.84-10.22ZM108.46,26.68c-1.93-.06-3.24-.93-3.24-.93v-9.29s1.29-.79,2.88-.93c2-.18,3.93.43,3.93,5.21,0,5.04-.87,6.03-3.57,5.95Z"/>
  <path class="cls-1" d="M49.11,10.77h-4.21s0-5.55,0-5.56c0-.21-.11-.32-.35-.32h-5.73c-.22,0-.34.1-.34.31v5.74s-2.87.69-3.07.75c-.19.06-.34.23-.34.45v3.61c0,.26.21.47.46.47h2.94v8.68c0,6.45,4.52,7.08,7.57,7.08,1.39,0,3.06-.45,3.34-.55.17-.06.26-.23.26-.42v-3.97c0-.26-.21-.47-.46-.47s-.87.1-1.52.1c-2.07,0-2.77-.96-2.77-2.2s0-8.25,0-8.25h4.21c.26,0,.46-.21.46-.47v-4.52c0-.26-.21-.47-.46-.47Z"/>
</svg>